0
SECTION
2
HEADER
9
$INSUNITS
70
4
9
$ACADVER
1
AC1014
9
$HANDSEED
5
FFFF
0
ENDSEC
0
SECTION
2
TABLES
0
TABLE
2
VPORT
5
8
100
AcDbSymbolTable
0
ENDTAB
0
TABLE
2
LTYPE
5
5
100
AcDbSymbolTable
0
LTYPE
5
14
100
AcDbSymbolTableRecord
100
AcDbLinetypeTableRecord
2
BYBLOCK
70
0
0
LTYPE
5
15
100
AcDbSymbolTableRecord
100
AcDbLinetypeTableRecord
2
BYLAYER
70
0
0
ENDTAB
0
TABLE
2
LAYER
5
2
100
AcDbSymbolTable
70
2
0
LAYER
5
50
100
AcDbSymbolTableRecord
100
AcDbLayerTableRecord
2
0
70
0
6
CONTINUOUS
0
ENDTAB
0
TABLE
2
STYLE
5
3
100
AcDbSymbolTable
70
1
0
STYLE
5
11
100
AcDbSymbolTableRecord
100
AcDbTextStyleTableRecord
2
STANDARD
70
0
0
ENDTAB
0
TABLE
2
VIEW
5
6
100
AcDbSymbolTable
70
0
0
ENDTAB
0
TABLE
2
UCS
5
7
100
AcDbSymbolTable
70
0
0
ENDTAB
0
TABLE
2
APPID
5
9
100
AcDbSymbolTable
70
2
0
APPID
5
12
100
AcDbSymbolTableRecord
100
AcDbRegAppTableRecord
2
ACAD
70
0
0
ENDTAB
0
TABLE
2
DIMSTYLE
5
A
100
AcDbSymbolTable
70
1
0
ENDTAB
0
TABLE
2
BLOCK_RECORD
5
1
100
AcDbSymbolTable
70
1
0
BLOCK_RECORD
5
1F
100
AcDbSymbolTableRecord
100
AcDbBlockTableRecord
2
*MODEL_SPACE
0
BLOCK_RECORD
5
1B
100
AcDbSymbolTableRecord
100
AcDbBlockTableRecord
2
*PAPER_SPACE
0
ENDTAB
0
ENDSEC
0
SECTION
2
BLOCKS
0
BLOCK
5
20
100
AcDbEntity
100
AcDbBlockBegin
2
*MODEL_SPACE
0
ENDBLK
5
21
100
AcDbEntity
100
AcDbBlockEnd
0
BLOCK
5
1C
100
AcDbEntity
100
AcDbBlockBegin
2
*PAPER_SPACE
0
ENDBLK
5
1D
100
AcDbEntity
100
AcDbBlockEnd
0
ENDSEC
0
SECTION
2
ENTITIES
0
LWPOLYLINE
5
100
100
AcDbEntity
8
0
100
AcDbPolyline
90
8
70
1
43
0.0
10
-28.349999999995109
20
115.93124999999709
10
-278.03750000017749
20
115.93125000017088
42
0.41421356237406937
10
-280.23750000017901
20
113.73125000016509
10
-280.23749999996096
20
30.731250000000276
42
0.41421356237240037
10
-278.03749999996046
20
28.53125000000604
10
-28.350000000062856
20
28.531250000064912
42
0.41421356237278878
10
-26.150000000063379
20
30.731250000063145
10
-26.149999999996645
20
113.7312499999953
42
0.41421356237312223
0
LWPOLYLINE
5
101
100
AcDbEntity
8
0
100
AcDbPolyline
90
8
70
1
43
0.0
10
-30.050000000044584
20
52.481244999999994
10
-30.650000000044606
20
52.481244999999994
42
-0.41421356237333079
10
-32.250000000044608
20
54.081245000001282
10
-32.250000000033893
20
67.381245000001286
42
-0.41421356237286094
10
-30.650000000033877
20
68.981245000000001
10
-30.05000000003389
20
68.981245000000001
42
-0.41421356237332918
10
-28.450000000033899
20
67.381244999998714
10
-28.450000000044593
20
54.081244999998709
42
-0.41421356237285767
0
LWPOLYLINE
5
102
100
AcDbEntity
8
0
100
AcDbPolyline
90
12
70
1
43
0.0
10
-32.25000000000761
20
100.08124500000125
10
-32.250000000001535
20
107.6312499999982
42
0.41421356237332918
10
-34.450000000001538
20
109.83125
10
-48.343749999999986
20
109.83125000000001
42
-0.41421356237309509
10
-49.943749999999987
20
111.43125000000001
10
-49.943749999999987
20
112.03125000001103
42
-0.41421356237329332
10
-48.343749999998884
20
113.63125000001102
10
-30.649999999996965
20
113.63124999999874
42
-0.41421356237312579
10
-28.449999999998511
20
111.43124999999696
10
-28.450000000007606
20
100.08124499999872
42
-0.41421356237286333
10
-30.0500000000076
20
98.481244999999973
10
-30.650000000007587
20
98.481244999999959
42
-0.41421356237332996
0
LWPOLYLINE
5
103
100
AcDbEntity
8
0
100
AcDbPolyline
90
8
70
1
43
0.0
10
-30.650000000015403
20
91.98124500000003
10
-30.050000000015451
20
91.98124500000003
42
-0.4142135623733324
10
-28.450000000015436
20
90.381244999998742
10
-28.450000000026105
20
77.081244999998702
42
-0.4142135623728585
10
-30.05000000002611
20
75.481245000000001
10
-30.650000000026097
20
75.481245000000001
42
-0.41421356237332996
10
-32.250000000026098
20
77.081245000001289
10
-32.250000000015426
20
90.3812450000013
42
-0.41421356237286416
0
LWPOLYLINE
5
104
100
AcDbEntity
8
0
100
AcDbPolyline
90
8
70
1
43
0.0
10
-34.275000000000013
20
50.156250000000007
10
-34.275000000000027
20
37.156250000000014
42
-0.41420184692718315
10
-34.775000000000006
20
36.656250000000014
10
-47.775000000000006
20
36.656250000000007
42
-0.4142018469271701
10
-48.27500000000002
20
37.156250000000014
10
-48.275000000000013
20
50.156250000000007
42
-0.41420184692717793
10
-47.775000000000006
20
50.656250000000014
10
-34.77500000000002
20
50.656250000000014
42
-0.41420184692717538
0
LWPOLYLINE
5
105
100
AcDbEntity
8
0
100
AcDbPolyline
90
8
70
1
43
0.0
10
-36.656250000000014
20
107.30625000000003
10
-36.656250000000007
20
94.306250000000006
42
-0.41420184692718576
10
-37.156250000000014
20
93.806250000000006
10
-50.156250000000007
20
93.806249999999977
42
-0.41420184692717793
10
-50.656250000000014
20
94.306250000000006
10
-50.656249999999986
20
107.30625000000005
42
-0.41420184692718315
10
-50.156250000000007
20
107.80625000000001
10
-37.156250000000021
20
107.80625000000002
42
-0.41420184692717793
0
LWPOLYLINE
5
106
100
AcDbEntity
8
0
100
AcDbPolyline
90
8
70
1
43
0.0
10
-208.04374999999999
20
109.83125000000001
10
-248.34375
20
109.83125000000001
42
-0.41421356237309509
10
-249.94375000000002
20
111.43125000000001
10
-249.94375000000002
20
112.03125000015022
42
-0.41421356237329332
10
-248.34374999999892
20
113.6312500001502
10
-208.04374999999891
20
113.63125000012218
42
-0.41421356237289347
10
-206.44374999999999
20
112.03125000012218
10
-206.44374999999999
20
111.43124999999999
42
-0.41421356237309176
0
LWPOLYLINE
5
107
100
AcDbEntity
8
0
100
AcDbPolyline
90
8
70
1
43
0.0
10
-146.69375000000002
20
93.80625000000002
10
-159.69375000000002
20
93.806250000000006
42
-0.41420184692711554
10
-160.19375000000002
20
94.306250000000006
10
-160.19374999999999
20
107.30625000000005
42
-0.41420184692724038
10
-159.69374999999999
20
107.80625000000002
10
-146.69374999999999
20
107.80625000000003
42
-0.41420184692712592
10
-146.19375000000002
20
107.30625000000005
10
-146.19375000000002
20
94.306250000000006
42
-0.41420184692719875
0
LWPOLYLINE
5
108
100
AcDbEntity
8
0
100
AcDbPolyline
90
8
70
1
43
0.0
10
-100.28135000000003
20
92.806250000000006
10
-106.03135000000003
20
92.806249999999991
42
-0.41422527838471845
10
-106.53135
20
93.306250000000006
10
-106.53135000000003
20
106.30625000000002
42
-0.41422527838467682
10
-106.03135000000003
20
106.80625000000003
10
-100.28135
20
106.80625000000003
42
-0.41420184692713635
10
-99.781350000000018
20
106.30625000000002
10
-99.781350000000018
20
93.306250000000006
42
-0.41420184692714673
0
LWPOLYLINE
5
109
100
AcDbEntity
8
0
100
AcDbPolyline
90
8
70
1
43
0.0
10
-148.57500000000002
20
50.156250000000007
10
-148.57499999999999
20
37.156250000000014
42
-0.4142018469271701
10
-149.07499999999999
20
36.656250000000014
10
-162.07499999999999
20
36.656250000000043
42
-0.41420184692729239
10
-162.57500000000005
20
37.156250000000014
10
-162.57500000000005
20
50.156250000000007
42
-0.41420184692714673
10
-162.07499999999999
20
50.656250000000014
10
-149.07499999999999
20
50.656250000000036
42
-0.41420184692719875
0
LWPOLYLINE
5
110
100
AcDbEntity
8
0
100
AcDbPolyline
90
8
70
1
43
0.0
10
-143.52500000000003
20
37.156250000000014
10
-143.52499999999998
20
50.156250000000007
42
-0.41420184692717793
10
-143.02500000000003
20
50.656250000000014
10
-130.02500000000003
20
50.65625
42
-0.41420184692719875
10
-129.52500000000003
20
50.156250000000007
10
-129.52499999999998
20
37.156250000000014
42
-0.4142018469271545
10
-130.02500000000001
20
36.656250000000014
10
-143.02500000000003
20
36.656250000000014
42
-0.41420184692719353
0
LWPOLYLINE
5
111
100
AcDbEntity
8
0
100
AcDbPolyline
90
8
70
1
43
0.0
10
-199.94375000000005
20
111.43125000000001
10
-199.94375000000002
20
112.03125000011545
42
-0.41421356237329332
10
-198.34374999999892
20
113.63125000011543
10
-158.04374999999891
20
113.63125000008736
42
-0.41421356237288692
10
-156.44375000000002
20
112.03125000008737
10
-156.44374999999999
20
111.43124999999999
42
-0.41421356237309176
10
-158.04374999999999
20
109.83125000000001
10
-198.34375
20
109.83124999999998
42
-0.41421356237309509
0
LWPOLYLINE
5
112
100
AcDbEntity
8
0
100
AcDbPolyline
90
8
70
1
43
0.0
10
-91.137500000000031
20
94.306250000000034
10
-91.137500000000017
20
107.30625000000005
42
-0.41420184692715711
10
-90.637500000000017
20
107.80625000000002
10
-77.637500000000031
20
107.80625000000003
42
-0.41420184692717793
10
-77.137500000000031
20
107.30625000000005
10
-77.137500000000031
20
94.306250000000006
42
-0.41420184692718837
10
-77.637500000000017
20
93.80625000000002
10
-90.637500000000017
20
93.806249999999977
42
-0.41420184692718837
0
LWPOLYLINE
5
113
100
AcDbEntity
8
0
100
AcDbPolyline
90
8
70
1
43
0.0
10
-56.443750000000009
20
33.031250000054399
10
-56.44375000000003
20
32.431250000335936
42
-0.41421356237264956
10
-58.043749999997594
20
30.831250000335935
10
-98.343749999997556
20
30.831250000274515
42
-0.41421356237354373
10
-99.943750000000023
20
32.431250000274517
10
-99.943750000000023
20
33.031250000045553
42
-0.41421356237302998
10
-98.343750000000369
20
34.631250000045554
10
-58.043750000000358
20
34.631250000054401
42
-0.41421356237315843
0
LWPOLYLINE
5
114
100
AcDbEntity
8
0
100
AcDbPolyline
90
8
70
1
43
0.0
10
-124.47500000000005
20
37.156250000000014
10
-124.47499999999999
20
50.156250000000007
42
-0.41420184692717793
10
-123.97500000000001
20
50.656250000000014
10
-110.97499999999999
20
50.65625
42
-0.41420184692718837
10
-110.47500000000001
20
50.156250000000007
10
-110.47499999999998
20
37.156250000000014
42
-0.4142018469271545
10
-110.97499999999999
20
36.656250000000014
10
-123.97500000000001
20
36.656249999999993
42
-0.4142018469271519
0
LWPOLYLINE
5
115
100
AcDbEntity
8
0
100
AcDbPolyline
90
8
70
1
43
0.0
10
-58.04375000000001
20
109.83125000000001
10
-98.343750000000014
20
109.83125000000001
42
-0.41421356237309509
10
-99.943750000000023
20
111.43125000000001
10
-99.943750000000051
20
112.03125000004584
42
-0.41421356237329665
10
-98.343749999998934
20
113.63125000004584
10
-58.043749999998902
20
113.63125000001776
42
-0.41421356237289175
10
-56.443750000000009
20
112.03125000001776
10
-56.443750000000009
20
111.43124999999999
42
-0.41421356237309176
0
LWPOLYLINE
5
116
100
AcDbEntity
8
0
100
AcDbPolyline
90
8
70
1
43
0.0
10
-200.35615000000007
20
92.806250000000006
10
-206.10615000000001
20
92.80625000000002
42
-0.4142018469271051
10
-206.60615000000007
20
93.306250000000034
10
-206.6061500000001
20
106.30625000000002
42
-0.41420184692720913
10
-206.10615000000001
20
106.80625000000001
10
-200.35615000000007
20
106.80625000000003
42
-0.41422527838467682
10
-199.85615000000001
20
106.30625000000003
10
-199.85615000000001
20
93.306250000000006
42
-0.41422527838472883
0
LWPOLYLINE
5
117
100
AcDbEntity
8
0
100
AcDbPolyline
90
8
70
1
43
0.0
10
-90.637500000000017
20
69.706250000000011
42
0.41420184692720913
10
-91.137500000000031
20
69.206250000000011
10
-91.137500000000017
20
56.206250000000011
42
0.41420184692718837
10
-90.637500000000017
20
55.706250000000011
10
-77.637500000000017
20
55.706250000000004
42
0.41420184692718837
10
-77.137500000000031
20
56.206250000000011
10
-77.137500000000031
20
69.206250000000011
42
0.41420184692719875
10
-77.637500000000031
20
69.706250000000011
0
LWPOLYLINE
5
118
100
AcDbEntity
8
0
100
AcDbPolyline
90
8
70
1
43
0.0
10
-71.587500000000034
20
69.706250000000011
42
0.41420184692719353
10
-72.08750000000002
20
69.206250000000011
10
-72.08750000000002
20
56.206250000000011
42
0.41420184692718837
10
-71.587500000000034
20
55.706250000000004
10
-58.58750000000002
20
55.706250000000004
42
0.41420184692718315
10
-58.087499999999999
20
56.206250000000011
10
-58.087500000000027
20
69.206250000000011
42
0.41420184692717793
10
-58.58750000000002
20
69.706250000000011
0
LWPOLYLINE
5
119
100
AcDbEntity
8
0
100
AcDbPolyline
90
8
70
1
43
0.0
10
-108.04374999999754
20
30.831250000259729
10
-148.34374999999756
20
30.83125000019831
42
-0.41421356237354373
10
-149.94375000000002
20
32.431250000198311
10
-149.94375000000002
20
33.031250000034575
42
-0.41421356237302998
10
-148.34375000000037
20
34.631250000034576
10
-108.04375000000036
20
34.631250000043423
42
-0.41421356237316004
10
-106.44374999999999
20
33.031250000043421
10
-106.44374999999999
20
32.43125000025973
42
-0.41421356237264634
0
LWPOLYLINE
5
120
100
AcDbEntity
8
0
100
AcDbPolyline
90
8
70
1
43
0.0
10
-149.94375000000002
20
111.43125000000001
10
-149.94375000000005
20
112.03125000008063
42
-0.41421356237329665
10
-148.34374999999892
20
113.63125000008061
10
-108.04374999999891
20
113.63125000005257
42
-0.41421356237288692
10
-106.44375000000004
20
112.03125000005258
10
-106.44374999999999
20
111.43124999999999
42
-0.41421356237309176
10
-108.04375
20
109.83125000000001
10
-148.34375
20
109.83125000000001
42
-0.41421356237309509
0
LWPOLYLINE
5
121
100
AcDbEntity
8
0
100
AcDbPolyline
90
8
70
1
43
0.0
10
-115.2375
20
69.206250000000011
42
0.41420184692718315
10
-115.73750000000001
20
69.706250000000011
10
-128.73750000000001
20
69.706250000000011
42
0.41420184692720913
10
-129.23750000000004
20
69.206250000000011
10
-129.23750000000004
20
56.206250000000011
42
0.41420184692720913
10
-128.73750000000001
20
55.706250000000011
10
-115.73750000000003
20
55.706250000000004
42
0.41420184692717793
10
-115.23749999999998
20
56.206250000000011
0
LWPOLYLINE
5
122
100
AcDbEntity
8
0
100
AcDbPolyline
90
8
70
1
43
0.0
10
-134.28750000000002
20
69.206250000000011
42
0.41420184692717271
10
-134.78749999999999
20
69.706250000000026
10
-147.78750000000002
20
69.706250000000011
42
0.41420184692721956
10
-148.28749999999999
20
69.206250000000011
10
-148.28749999999999
20
56.206250000000011
42
0.41420184692713635
10
-147.78750000000002
20
55.706249999999997
10
-134.78749999999999
20
55.706250000000004
42
0.41420184692717793
10
-134.28750000000005
20
56.206250000000011
0
LWPOLYLINE
5
123
100
AcDbEntity
8
0
100
AcDbPolyline
90
8
70
1
43
0.0
10
-105.71250000000003
20
88.256250000000023
42
0.41420184692717793
10
-106.21250000000005
20
88.756249999999994
10
-119.21250000000002
20
88.756250000000051
42
0.41420184692719875
10
-119.71250000000001
20
88.256250000000023
10
-119.71250000000003
20
75.256249999999994
42
0.41420184692719353
10
-119.21250000000001
20
74.75624999999998
10
-106.21250000000003
20
74.756249999999994
42
0.41420184692718837
10
-105.71250000000003
20
75.25624999999998
0
LWPOLYLINE
5
124
100
AcDbEntity
8
0
100
AcDbPolyline
90
8
70
1
43
0.0
10
-138.76250000000005
20
75.256249999999994
42
0.41420184692721429
10
-138.26250000000002
20
74.756249999999994
10
-125.26250000000003
20
74.756249999999994
42
0.41420184692716755
10
-124.7625
20
75.25624999999998
10
-124.76250000000002
20
88.256250000000023
42
0.41420184692719875
10
-125.26250000000005
20
88.75624999999998
10
-138.26249999999999
20
88.756250000000023
42
0.41420184692719875
10
-138.76249999999999
20
88.256250000000023
0
LWPOLYLINE
5
125
100
AcDbEntity
8
0
100
AcDbPolyline
90
8
70
1
43
0.0
10
-195.91250000000002
20
75.256249999999994
42
0.41420184692718315
10
-195.41250000000002
20
74.756250000000023
10
-182.41250000000002
20
74.756249999999994
42
0.41420184692721429
10
-181.91250000000002
20
75.25624999999998
10
-181.91249999999999
20
88.256250000000023
42
0.41420184692722994
10
-182.41250000000002
20
88.756249999999994
10
-195.41250000000002
20
88.756250000000051
42
0.41420184692733397
10
-195.91250000000005
20
88.256250000000023
0
LWPOLYLINE
5
126
100
AcDbEntity
8
0
100
AcDbPolyline
90
8
70
1
43
0.0
10
-176.86250000000004
20
75.256249999999994
42
0.41420184692729239
10
-176.36250000000001
20
74.756250000000023
10
-163.36250000000004
20
74.756249999999994
42
0.41420184692718837
10
-162.86249999999998
20
75.25624999999998
10
-162.86250000000001
20
88.256250000000037
42
0.41420184692720913
10
-163.36250000000004
20
88.75624999999998
10
-176.36250000000001
20
88.756250000000023
42
0.41420184692716755
10
-176.86250000000001
20
88.256250000000023
0
LWPOLYLINE
5
127
100
AcDbEntity
8
0
100
AcDbPolyline
90
8
70
1
43
0.0
10
-166.83750000000001
20
69.706250000000011
10
-153.83750000000001
20
69.706250000000026
42
-0.41420184692717271
10
-153.33750000000003
20
69.206250000000011
10
-153.33750000000006
20
56.206250000000011
42
-0.41420184692717793
10
-153.83750000000001
20
55.706250000000004
10
-166.83750000000003
20
55.706250000000011
42
-0.41420184692724554
10
-167.33750000000003
20
56.206250000000011
10
-167.33750000000003
20
69.206250000000011
42
-0.41420184692719353
0
LWPOLYLINE
5
128
100
AcDbEntity
8
0
100
AcDbPolyline
90
8
70
1
43
0.0
10
-208.04374999999754
20
30.831250000107318
10
-248.34374999999756
20
30.831250000045898
42
-0.41421356237354373
10
-249.94375000000002
20
32.4312500000459
10
-249.94375000000002
20
33.031250000012612
42
-0.41421356237302998
10
-248.34375000000037
20
34.631250000012614
10
-208.04375000000036
20
34.631250000021467
42
-0.41421356237316004
10
-206.44374999999999
20
33.031250000021465
10
-206.44374999999999
20
32.431250000107326
42
-0.41421356237264634
0
LWPOLYLINE
5
129
100
AcDbEntity
8
0
100
AcDbPolyline
90
8
70
1
43
0.0
10
-276.3375000001177
20
91.98124500000003
10
-275.73749999998205
20
91.98124500000003
42
-0.41421356237282186
10
-274.13749999998203
20
90.381245000001513
10
-274.13749999996958
20
77.081245000001502
42
-0.41421356237336815
10
-275.73749999996954
20
75.481245000000015
10
-276.33750000008274
20
75.481244999999987
42
-0.41421356237232598
10
-277.93750000008276
20
77.081244999995789
10
-277.93750000011767
20
90.381244999995829
42
-0.41421356237386242
0
LWPOLYLINE
5
130
100
AcDbEntity
8
0
100
AcDbPolyline
90
8
70
1
43
0.0
10
-172.38749999999999
20
69.206250000000011
42
0.41420184692717793
10
-172.88749999999999
20
69.70625000000004
10
-185.88750000000002
20
69.706250000000011
42
0.41420184692711554
10
-186.38749999999999
20
69.206250000000011
10
-186.38750000000005
20
56.206250000000011
42
0.41420184692726636
10
-185.88750000000002
20
55.706250000000004
10
-172.88749999999999
20
55.706250000000004
42
0.41420184692721956
10
-172.38749999999999
20
56.206250000000011
0
LWPOLYLINE
5
131
100
AcDbEntity
8
0
100
AcDbPolyline
90
8
70
1
43
0.0
10
-200.67500000000001
20
37.156250000000014
10
-200.67500000000007
20
50.156250000000007
42
-0.41420184692732359
10
-200.17500000000001
20
50.656250000000014
10
-187.17500000000001
20
50.656250000000028
42
-0.41420184692719353
10
-186.67499999999995
20
50.156250000000007
10
-186.67500000000001
20
37.156250000000014
42
-0.41420184692721429
10
-187.17500000000001
20
36.656250000000014
10
-200.17500000000001
20
36.656250000000014
42
-0.41420184692715972
0
LWPOLYLINE
5
132
100
AcDbEntity
8
0
100
AcDbPolyline
90
8
70
1
43
0.0
10
-215.25000000000006
20
107.30625000000003
10
-215.25000000000006
20
94.306250000000006
42
-0.41420184692718837
10
-215.75000000000003
20
93.806250000000006
10
-228.75
20
93.806249999999977
42
-0.41420184692724038
10
-229.25000000000011
20
94.306250000000006
10
-229.25
20
107.30625000000005
42
-0.41420184692709466
10
-228.75
20
107.80625000000001
10
-215.75000000000003
20
107.80625000000001
42
-0.41420184692716755
0
LWPOLYLINE
5
133
100
AcDbEntity
8
0
100
AcDbPolyline
90
8
70
1
43
0.0
10
-255.73125000000002
20
107.30625000000003
10
-255.73124999999999
20
94.306250000000006
42
-0.41420184692729239
10
-256.23125000000005
20
93.80625000000002
10
-269.23124999999999
20
93.806249999999949
42
-0.41420184692719875
10
-269.73124999999999
20
94.306250000000006
10
-269.73124999999999
20
107.30625000000005
42
-0.41420184692709466
10
-269.23124999999999
20
107.80625000000001
10
-256.23125000000005
20
107.80625000000006
42
-0.41420184692711554
0
LWPOLYLINE
5
134
100
AcDbEntity
8
0
100
AcDbPolyline
90
8
70
1
43
0.0
10
-274.13749999996048
20
67.381245000001485
10
-274.13749999994798
20
54.081245000001502
42
-0.41421356237336981
10
-275.737499999948
20
52.481245000000001
10
-276.33750000002232
20
52.481244999999987
42
-0.41421356237232598
10
-277.93750000002234
20
54.081244999995789
10
-277.93750000005724
20
67.381244999995801
42
-0.41421356237386403
10
-276.33750000005728
20
68.981245000000001
10
-275.73749999996045
20
68.981244999999987
42
-0.41421356237282025
0
LWPOLYLINE
5
135
100
AcDbEntity
8
0
100
AcDbPolyline
90
8
70
1
43
0.0
10
-266.85000000000002
20
69.706250000000011
10
-253.85000000000002
20
69.706249999999969
42
-0.41420184692718315
10
-253.35000000000002
20
69.206250000000011
10
-253.34999999999997
20
56.206250000000011
42
-0.41420184692732359
10
-253.85000000000002
20
55.706250000000004
10
-266.85000000000002
20
55.706249999999983
42
-0.41420184692718315
10
-267.35000000000002
20
56.206250000000011
10
-267.35000000000002
20
69.206250000000011
42
-0.41420184692717793
0
LWPOLYLINE
5
136
100
AcDbEntity
8
0
100
AcDbPolyline
90
12
70
1
43
0.0
10
-276.33749999999685
20
45.981249999999207
10
-275.7374999999389
20
45.981249999999207
42
-0.41421356237282025
10
-274.13749999993888
20
44.381250000000705
10
-274.13749999993183
20
36.831250000005362
42
0.4142135623728887
10
-271.93749999993133
20
34.631250000007419
10
-258.04375000000039
20
34.631250000010489
42
-0.41421356237316004
10
-256.44375000000002
20
33.031250000010488
10
-256.44375000000002
20
32.431250000031113
42
-0.41421356237264634
10
-258.04374999999754
20
30.831250000031112
10
-275.73749999996375
20
30.831250000004161
42
-0.41421356237277046
10
-277.93749999996703
20
33.031249999998373
10
-277.93749999999687
20
44.381249999995006
42
-0.41421356237386403
0
LWPOLYLINE
5
137
100
AcDbEntity
8
0
100
AcDbPolyline
90
8
70
1
43
0.0
10
-258.61250000000001
20
74.756249999999994
42
0.41420184692719353
10
-258.11249999999995
20
75.256249999999994
10
-258.11249999999995
20
88.256250000000023
42
0.41420184692731321
10
-258.61250000000001
20
88.756249999999994
10
-271.61250000000001
20
88.756250000000051
42
0.41420184692714673
10
-272.11250000000007
20
88.256250000000023
10
-272.11250000000001
20
75.256249999999994
42
0.41420184692720391
10
-271.61250000000001
20
74.756249999999994
0
LWPOLYLINE
5
138
100
AcDbEntity
8
0
100
AcDbPolyline
90
8
70
1
43
0.0
10
-234.01250000000005
20
75.256249999999994
42
0.41420184692719875
10
-233.51249999999999
20
74.756249999999966
10
-220.51249999999999
20
74.756249999999994
42
0.41420184692718837
10
-220.01249999999996
20
75.25624999999998
10
-220.01249999999999
20
88.256250000000037
42
0.41420184692717793
10
-220.51249999999999
20
88.756249999999994
10
-233.51249999999999
20
88.75624999999998
42
0.4142018469271051
10
-234.01250000000005
20
88.256250000000023
0
LWPOLYLINE
5
139
100
AcDbEntity
8
0
100
AcDbPolyline
90
8
70
1
43
0.0
10
-223.98750000000007
20
69.706250000000011
42
0.41420184692723516
10
-224.48750000000004
20
69.206250000000011
10
-224.48750000000004
20
56.206250000000011
42
0.41420184692713635
10
-223.98750000000007
20
55.706250000000026
10
-210.98750000000001
20
55.706250000000004
42
0.41420184692721956
10
-210.48750000000001
20
56.206250000000011
10
-210.48750000000001
20
69.206250000000011
42
0.41420184692720391
10
-210.98750000000001
20
69.706250000000011
0
LWPOLYLINE
5
140
100
AcDbEntity
8
0
100
AcDbPolyline
90
8
70
1
43
0.0
10
-243.03750000000002
20
69.706250000000011
42
0.41420184692717793
10
-243.53749999999997
20
69.206250000000011
10
-243.53750000000002
20
56.206250000000011
42
0.41420184692718315
10
-243.03750000000002
20
55.70624999999999
10
-230.03749999999999
20
55.706250000000004
42
0.41420184692732359
10
-229.53749999999997
20
56.206250000000011
10
-229.53749999999999
20
69.206250000000011
42
0.41420184692718315
10
-230.03749999999999
20
69.706249999999997
0
LWPOLYLINE
5
141
100
AcDbEntity
8
0
100
AcDbPolyline
90
8
70
1
43
0.0
10
-219.72499999999999
20
37.156250000000014
10
-219.72499999999999
20
50.156250000000007
42
-0.41420184692721956
10
-219.22499999999999
20
50.656250000000014
10
-206.22500000000002
20
50.656250000000007
42
-0.41420184692720391
10
-205.72500000000002
20
50.156250000000007
10
-205.72500000000002
20
37.156250000000014
42
-0.41420184692721429
10
-206.22500000000002
20
36.656250000000014
10
-219.22499999999999
20
36.656250000000007
42
-0.41420184692720657
0
LWPOLYLINE
5
142
100
AcDbEntity
8
0
100
AcDbPolyline
90
8
70
1
43
0.0
10
-251.46875
20
36.656250000000014
10
-264.46875
20
36.656250000000043
42
-0.41420184692729239
10
-264.96875000000006
20
37.156250000000014
10
-264.96875000000006
20
50.156250000000007
42
-0.41420184692714673
10
-264.46875
20
50.656250000000014
10
-251.46875
20
50.656250000000043
42
-0.41420184692718315
10
-250.96875
20
50.156250000000007
10
-250.96875
20
37.156250000000014
42
-0.41420184692721429
0
LWPOLYLINE
5
143
100
AcDbEntity
8
0
100
AcDbPolyline
90
8
70
1
43
0.0
10
-238.77500000000001
20
37.156250000000014
10
-238.77500000000001
20
50.156250000000007
42
-0.41420184692721956
10
-238.27500000000001
20
50.656250000000014
10
-225.27500000000003
20
50.656250000000007
42
-0.41420184692720391
10
-224.77500000000003
20
50.156250000000007
10
-224.77500000000006
20
37.156250000000014
42
-0.41420184692713635
10
-225.27500000000003
20
36.656250000000014
10
-238.27500000000001
20
36.656250000000007
42
-0.41420184692720657
0
LWPOLYLINE
5
144
100
AcDbEntity
8
0
100
AcDbPolyline
90
8
70
1
43
0.0
10
-252.5625
20
88.756249999999994
10
-239.5625
20
88.756249999999994
42
-0.41420184692717793
10
-239.0625
20
88.256250000000037
10
-239.06249999999997
20
75.25624999999998
42
-0.41420184692718837
10
-239.5625
20
74.756249999999994
10
-252.5625
20
74.756249999999966
42
-0.41420184692711026
10
-253.06250000000006
20
75.256249999999994
10
-253.06250000000006
20
88.256250000000023
42
-0.41420184692716755
0
LWPOLYLINE
5
145
100
AcDbEntity
8
0
100
AcDbPolyline
90
8
70
1
43
0.0
10
-214.46250000000006
20
88.756250000000023
10
-201.46250000000006
20
88.756250000000009
42
-0.41420184692713635
10
-200.96250000000001
20
88.256250000000023
10
-200.96249999999998
20
75.25624999999998
42
-0.41420184692724038
10
-201.46250000000006
20
74.756249999999994
10
-214.46250000000006
20
74.756249999999994
42
-0.41420184692713635
10
-214.96250000000003
20
75.256249999999994
10
-214.96250000000003
20
88.256250000000023
42
-0.41420184692722994
0
LWPOLYLINE
5
146
100
AcDbEntity
8
0
100
AcDbPolyline
90
12
70
1
43
0.0
10
-256.44374999999997
20
112.03125000015696
10
-256.44375000000002
20
111.43124999999999
42
-0.41421356237309176
10
-258.04374999999999
20
109.83125000000001
10
-271.93749999999818
20
109.83125000000001
42
0.4142135623733646
10
-274.13749999999817
20
107.63124999999792
10
-274.13749999999112
20
100.08124500000147
42
-0.41421356237336815
10
-275.73749999999114
20
98.481244999999973
10
-276.33750000014317
20
98.481244999999973
42
-0.41421356237232437
10
-277.93750000014319
20
100.08124499999576
10
-277.93750000017297
20
111.43125000016353
42
-0.41421356237406698
10
-275.73750000017145
20
113.6312500001693
10
-258.04374999999891
20
113.631250000157
42
-0.41421356237289347
0
LWPOLYLINE
5
147
100
AcDbEntity
8
0
100
AcDbPolyline
90
8
70
1
43
0.0
10
-181.625
20
37.156250000000014
10
-181.62500000000006
20
50.156250000000007
42
-0.41420184692732359
10
-181.125
20
50.656250000000014
10
-168.125
20
50.656250000000043
42
-0.41420184692718315
10
-167.625
20
50.156250000000007
10
-167.625
20
37.156250000000014
42
-0.41420184692721429
10
-168.125
20
36.656250000000014
10
-181.125
20
36.656250000000014
42
-0.41420184692715972
0
LWPOLYLINE
5
148
100
AcDbEntity
8
0
100
AcDbPolyline
90
8
70
1
43
0.0
10
-204.93750000000006
20
69.706250000000011
10
-191.9375
20
69.70625000000004
42
-0.41420184692717793
10
-191.4375
20
69.206250000000011
10
-191.4375
20
56.206250000000011
42
-0.41420184692721956
10
-191.9375
20
55.706250000000004
10
-204.93750000000006
20
55.706250000000026
42
-0.41420184692713635
10
-205.43750000000003
20
56.206250000000011
10
-205.43750000000003
20
69.206250000000011
42
-0.41420184692723516
0
LWPOLYLINE
5
149
100
AcDbEntity
8
0
100
AcDbPolyline
90
8
70
1
43
0.0
10
-158.04374999999754
20
30.831250000183523
10
-198.34374999999756
20
30.831250000122104
42
-0.41421356237354373
10
-199.94375000000002
20
32.431250000122105
10
-199.94375000000002
20
33.03125000002359
42
-0.41421356237302998
10
-198.34375000000037
20
34.631250000023591
10
-158.04375000000036
20
34.631250000032445
42
-0.41421356237316004
10
-156.44374999999999
20
33.031250000032443
10
-156.44374999999999
20
32.431250000183525
42
-0.41421356237264634
0
LWPOLYLINE
5
150
100
AcDbEntity
8
0
100
AcDbPolyline
90
8
70
1
43
0.0
10
-144.31250000000003
20
74.756249999999994
10
-157.31250000000003
20
74.75624999999998
42
-0.41420184692712592
10
-157.8125
20
75.256249999999994
10
-157.8125
20
88.256250000000023
42
-0.41420184692713635
10
-157.3125
20
88.756250000000023
10
-144.31250000000003
20
88.756250000000009
42
-0.41420184692716755
10
-143.8125
20
88.256250000000037
10
-143.81250000000003
20
75.25624999999998
42
-0.41420184692721429
0
LWPOLYLINE
5
151
100
AcDbEntity
8
0
100
AcDbPolyline
90
8
70
1
43
0.0
10
-100.16250000000001
20
88.75624999999998
42
0.41420184692722994
10
-100.66249999999999
20
88.256250000000023
10
-100.66250000000004
20
75.256249999999994
42
0.41420184692716755
10
-100.16249999999999
20
74.756249999999994
10
-87.162500000000037
20
74.756249999999994
42
0.41420184692718315
10
-86.66249999999998
20
75.25624999999998
10
-86.662499999999994
20
88.256250000000037
42
0.41420184692720913
10
-87.162500000000023
20
88.756250000000009
0
LWPOLYLINE
5
152
100
AcDbEntity
8
0
100
AcDbPolyline
90
8
70
1
43
0.0
10
-81.612500000000011
20
75.256249999999994
42
0.41420184692718315
10
-81.112499999999997
20
74.756249999999994
10
-68.112500000000011
20
74.756249999999994
42
0.41420184692716228
10
-67.612500000000026
20
75.25624999999998
10
-67.612500000000026
20
88.256250000000037
42
0.41420184692716228
10
-68.112499999999997
20
88.75624999999998
10
-81.112499999999983
20
88.756250000000051
42
0.41420184692716755
10
-81.612500000000011
20
88.256250000000023
0
LWPOLYLINE
5
153
100
AcDbEntity
8
0
100
AcDbPolyline
90
8
70
1
43
0.0
10
-96.687500000000028
20
55.706250000000004
10
-109.68750000000001
20
55.706250000000026
42
-0.41420184692719875
10
-110.18750000000003
20
56.206250000000011
10
-110.1875
20
69.206250000000011
42
-0.41420184692720913
10
-109.6875
20
69.706250000000011
10
-96.687500000000014
20
69.706249999999997
42
-0.41420184692718837
10
-96.187500000000028
20
69.206250000000011
10
-96.187499999999986
20
56.206250000000011
42
-0.41420184692718837
0
LWPOLYLINE
5
154
100
AcDbEntity
8
0
100
AcDbPolyline
90
8
70
1
43
0.0
10
-91.425000000000011
20
50.156250000000007
10
-91.424999999999997
20
37.156250000000014
42
-0.41420184692718837
10
-91.925000000000011
20
36.656250000000014
10
-104.92500000000001
20
36.656250000000007
42
-0.41420184692718576
10
-105.42500000000003
20
37.156250000000014
10
-105.42500000000004
20
50.156250000000007
42
-0.41420184692717793
10
-104.92500000000001
20
50.656250000000014
10
-91.925000000000011
20
50.656249999999979
42
-0.41420184692719875
0
LWPOLYLINE
5
155
100
AcDbEntity
8
0
100
AcDbPolyline
90
8
70
1
43
0.0
10
-72.375000000000014
20
50.156250000000007
10
-72.375000000000028
20
37.156250000000014
42
-0.4142018469271519
10
-72.875000000000014
20
36.656250000000014
10
-85.875000000000028
20
36.656250000000014
42
-0.41420184692717271
10
-86.375000000000014
20
37.156250000000014
10
-86.375000000000028
20
50.156250000000007
42
-0.41420184692717793
10
-85.875
20
50.656250000000014
10
-72.875000000000028
20
50.656250000000028
42
-0.41420184692717271
0
LWPOLYLINE
5
156
100
AcDbEntity
8
0
100
AcDbPolyline
90
8
70
1
43
0.0
10
-50.656250000000014
20
56.206250000000011
42
0.41420184692717793
10
-50.156250000000007
20
55.706250000000004
10
-37.156250000000014
20
55.706250000000004
42
0.41420184692718576
10
-36.656250000000014
20
56.206250000000011
10
-36.656250000000014
20
69.206250000000011
42
0.41420184692715711
10
-37.156250000000021
20
69.706249999999997
10
-50.156250000000007
20
69.706250000000011
42
0.41420184692716755
10
-50.656250000000028
20
69.206250000000011
0
LWPOLYLINE
5
157
100
AcDbEntity
8
0
100
AcDbPolyline
90
8
70
1
43
0.0
10
-53.325000000000017
20
50.156250000000007
10
-53.325000000000017
20
37.156250000000014
42
-0.41420184692719875
10
-53.82500000000001
20
36.656250000000014
10
-66.825000000000031
20
36.656250000000014
42
-0.41420184692718315
10
-67.325000000000017
20
37.156250000000014
10
-67.325000000000017
20
50.156250000000007
42
-0.41420184692715711
10
-66.825000000000031
20
50.656250000000014
10
-53.82500000000001
20
50.656250000000014
42
-0.4142018469271519
0
LWPOLYLINE
5
158
100
AcDbEntity
8
0
100
AcDbPolyline
90
12
70
1
43
0.0
10
-48.343750000000341
20
34.631250000056532
10
-34.45000000005799
20
34.631250000059588
42
0.4142135623727935
10
-32.250000000058485
20
36.831250000057821
10
-32.25000000005241
20
44.381250000001266
42
-0.41421356237285922
10
-30.650000000052408
20
45.981249999999974
10
-30.050000000052421
20
45.981249999999989
42
-0.41421356237333162
10
-28.450000000052412
20
44.381249999998701
10
-28.45000000006155
20
33.03125000037592
42
-0.41421356237241574
10
-30.650000000058213
20
30.831250000377686
10
-48.343749999997534
20
30.831250000350717
42
-0.41421356237354373
10
-49.943749999999987
20
32.431250000350722
10
-49.943750000000009
20
33.031250000056531
42
-0.41421356237303325
0
LWPOLYLINE
5
159
100
AcDbEntity
8
0
100
AcDbPolyline
90
8
70
1
43
0.0
10
-54.91875000000001
20
88.756250000000023
10
-41.918750000000024
20
88.75624999999998
42
-0.41420184692720913
10
-41.418750000000017
20
88.256250000000037
10
-41.418750000000017
20
75.25624999999998
42
-0.41420184692716228
10
-41.918750000000017
20
74.756249999999994
10
-54.91875000000001
20
74.756249999999994
42
-0.41420184692719353
10
-55.418750000000017
20
75.256249999999994
10
-55.418749999999982
20
88.256250000000023
42
-0.41420184692720913
0
ENDSEC
0
SECTION
2
OBJECTS
0
DICTIONARY
5
C
100
AcDbDictionary
3
ACAD_GROUP
350
D
3
ACAD_MLINESTYLE
350
17
0
DICTIONARY
5
D
100
AcDbDictionary
0
DICTIONARY
5
1A
330
C
100
AcDbDictionary
0
DICTIONARY
5
17
100
AcDbDictionary
0
ENDSEC
0
EOF
